PathFileType	4	(X/Y/Z)	markers_results_mono.trc
DataRate	CameraRate	NumFrames	NumMarkers	Units	OrigDataRate	OrigDataStartFrame	OrigNumFrames
12.500000	12.500000	9	22	m	12.500000	2262	3015
Frame#	Time	Nose			Neck			LShoulder			RShoulder			LElbow			RElbow			LWrist			RWrist			LHip			RHip			LKnee			RKnee			LAnkle			RAnkle			LEye			REye			LThumb			LIndex			LPinky			RThumb			RIndex			RPinky
		X1	Y1	Z1	X2	Y2	Z2	X3	Y3	Z3	X4	Y4	Z4	X5	Y5	Z5	X6	Y6	Z6	X7	Y7	Z7	X8	Y8	Z8	X9	Y9	Z9	X10	Y10	Z10	X11	Y11	Z11	X12	Y12	Z12	X13	Y13	Z13	X14	Y14	Z14	X15	Y15	Z15	X16	Y16	Z16	X17	Y17	Z17	X18	Y18	Z18	X19	Y19	Z19	X20	Y20	Z20	X21	Y21	Z21	X22	Y22	Z22

2262	180.880000	0.584760	-0.838852	0.266370	0.303802	-0.703943	0.086059	0.219784	-0.708918	-0.024197	0.387820	-0.698967	0.196315	-0.112391	-0.558604	-0.064573	0.232732	-0.520736	0.103472	-0.211977	-0.335925	-0.038870	-0.006766	-0.269027	0.036067	-0.019973	-0.313697	-0.022331	-0.016147	-0.281625	0.054875	-0.175210	-0.163023	-0.186323	-0.131015	-0.114015	-0.154668	-0.292928	-0.114490	-0.211266	-0.234851	-0.074635	-0.185661	0.584760	-0.866629	0.265378	0.584760	-0.859685	0.295140	-0.211977	-0.898015	0.612251	-0.211977	-0.175139	0.612251	-0.211977	-0.175139	0.612251	-0.006766	-0.104439	0.712555	-0.006766	-0.104439	0.209025	-0.006766	-0.846483	0.215999
2263	180.960000	0.566096	-0.885495	0.291889	0.294821	-0.751363	0.080465	0.209684	-0.753848	-0.024433	0.379958	-0.748878	0.185363	-0.113248	-0.597679	-0.057416	0.236300	-0.568326	0.103953	-0.209572	-0.370308	-0.033016	0.000241	-0.313404	0.044427	-0.023396	-0.351666	-0.022135	-0.017294	-0.321210	0.054517	-0.177345	-0.188863	-0.188796	-0.117463	-0.138647	-0.145157	-0.295518	-0.144180	-0.188515	-0.197567	-0.103989	-0.175990	0.566096	-0.911768	0.290951	0.566096	-0.906138	0.319101	-0.209572	-0.954569	0.643787	-0.209572	-0.200417	0.643787	-0.209572	-0.200417	0.643787	0.000241	-0.190340	0.533656	0.000241	-0.964028	0.533656	0.000241	-0.753206	0.189683
2264	181.040000	0.533486	-0.909270	0.306298	0.276743	-0.777592	0.064379	0.196354	-0.779405	-0.033202	0.357132	-0.775779	0.161960	-0.114104	-0.606851	-0.056164	0.227670	-0.588925	0.098081	-0.202770	-0.381378	-0.018930	0.002401	-0.325722	0.043728	-0.024187	-0.357033	-0.020714	-0.021513	-0.325186	0.052941	-0.173760	-0.179051	-0.188922	-0.087755	-0.131706	-0.137396	-0.280392	-0.147050	-0.166308	-0.130901	-0.119567	-0.213665	0.533486	-0.934800	0.306298	0.533486	-0.928638	0.331828	-0.202770	-0.976463	0.699277	-0.202770	-0.180573	0.699277	-0.202770	-0.180573	0.699277	0.002401	-0.186297	0.559918	0.002401	-0.750382	0.176767	0.002401	-0.763153	0.184217
2265	181.120000	0.511764	-0.924704	0.325250	0.268512	-0.789781	0.060432	0.189564	-0.790359	-0.033699	0.347461	-0.789203	0.154563	-0.098566	-0.609602	-0.048604	0.230251	-0.603906	0.097332	-0.188324	-0.387412	-0.013925	0.008130	-0.338176	0.047197	-0.025409	-0.365976	-0.021092	-0.020409	-0.335787	0.051139	-0.167763	-0.173008	-0.197474	-0.085746	-0.125683	-0.125591	-0.268120	-0.123330	-0.135047	-0.100603	-0.105029	-0.195179	0.511764	-0.949030	0.324411	0.511764	-0.943159	0.349576	-0.188324	-0.957140	0.643144	-0.188324	-0.224824	0.643144	-0.188324	-0.224824	0.643144	0.008130	-0.103504	0.997618	0.008130	-0.103504	0.997618	0.008130	-1.196685	0.369870
2266	181.200000	0.507804	-0.926027	0.345441	0.282343	-0.798513	0.065872	0.210006	-0.797710	-0.025178	0.354680	-0.799315	0.156923	-0.060424	-0.606471	-0.028476	0.227229	-0.611095	0.102272	-0.157228	-0.376107	0.011388	0.004479	-0.329674	0.039785	-0.015942	-0.374579	-0.018721	-0.020033	-0.345915	0.049982	-0.130089	-0.138916	-0.203007	-0.131758	-0.107838	-0.123748	-0.249673	-0.095752	-0.122984	-0.141216	-0.061840	-0.191445	0.507804	-0.950261	0.344633	0.507804	-0.943798	0.369675	-0.157228	-1.010837	0.716643	-0.157228	-0.203392	0.716643	-0.157228	-0.203392	0.716643	0.004479	-0.081519	1.079067	0.004479	-0.081519	1.079067	0.004479	-1.271392	1.079067
2267	181.280000	0.337730	-1.124829	-0.032498	0.260067	-0.986184	-0.033421	0.262429	-0.985752	-0.180230	0.257704	-0.986616	0.113387	0.091519	-0.677814	-0.261174	0.138529	-0.726038	0.137335	-0.013817	-0.518414	-0.213279	0.050204	-0.500435	0.065053	0.006596	-0.377889	-0.062368	0.021533	-0.412667	0.060820	-0.255565	-0.065599	-0.033377	-0.169489	-0.070518	0.085111	-0.330908	0.356983	0.077099	-0.190643	0.396355	0.324787	0.337730	-1.154881	-0.053303	0.337730	-1.154881	-0.002446	-0.013817	-0.612605	-0.201746	-0.013817	-0.629906	-0.161378	-0.013817	-0.601072	-0.163300	0.050204	-0.679878	-0.090985	0.050204	-0.586255	0.010440	0.050204	-0.539444	-0.067579
2268	181.360000	0.331638	-1.137258	-0.023528	0.260829	-0.998449	-0.044166	0.274484	-0.996826	-0.193718	0.247174	-1.000073	0.105386	0.099806	-0.689011	-0.272565	0.128924	-0.735992	0.138106	0.004016	-0.521655	-0.216656	0.049245	-0.504484	0.079408	0.011587	-0.385295	-0.070118	0.019354	-0.421115	0.051606	-0.245158	-0.068387	-0.041643	-0.163999	-0.075293	0.095217	-0.320234	0.353137	0.056336	-0.186072	0.380043	0.321207	0.331638	-1.181389	-0.057852	0.331638	-1.171582	0.013248	0.004016	-0.613696	-0.192112	0.004016	-0.636195	-0.169613	0.004016	-0.601424	-0.159386	0.049245	-0.611819	-0.199662	0.049245	-0.597508	-0.292686	0.049245	-0.576041	-0.213974
2269	181.440000	0.331732	-1.138836	0.012686	0.262497	-1.003955	-0.034511	0.332036	-0.990517	-0.203524	0.192957	-1.017394	0.134502	0.159488	-0.705055	-0.295941	-0.014024	-0.742793	0.129448	0.118181	-0.548183	-0.214913	-0.171621	-0.494210	0.110068	0.061688	-0.372872	-0.085501	-0.028424	-0.426975	0.053033	-0.086542	-0.037366	-0.038420	-0.305590	-0.071438	0.102609	-0.255687	0.382674	0.076795	-0.352718	0.392076	0.316003	0.331732	-1.179854	-0.022863	0.331732	-1.171650	0.048235	0.118181	-0.635210	-0.194192	0.118181	-0.660074	-0.183832	0.118181	-0.639354	-0.158968	-0.171621	-0.650555	0.016259	-0.171621	-0.650555	0.037107	-0.171621	-0.681825	0.068375
2270	181.520000	0.329410	-1.150266	0.023507	0.260026	-1.014950	-0.033216	0.334304	-1.002194	-0.201984	0.185747	-1.027706	0.135552	0.158243	-0.714588	-0.292541	-0.017887	-0.757086	0.122226	0.121120	-0.544924	-0.203941	-0.168192	-0.500735	0.105058	0.065549	-0.384184	-0.086028	-0.030116	-0.437143	0.051494	-0.078695	-0.054866	-0.045005	-0.307416	-0.091694	0.095965	-0.245194	0.353638	0.076792	-0.355117	0.356127	0.261248	0.329410	-1.192177	-0.010022	0.329410	-1.181001	0.057036	0.121120	-0.638649	-0.182852	0.121120	-0.659737	-0.182852	0.121120	-0.636305	-0.161764	-0.168192	-1.244829	0.157459	-0.168192	-1.370592	-0.188387	-0.168192	-0.773220	0.167938
